<svg xmlns="http://www.w3.org/2000/svg" viewBox="0 0 900 384" width="900" height="384" font-family="'Noto Sans KR','Malgun Gothic','Apple SD Gothic Neo',sans-serif">
<rect width="900" height="384" rx="14" fill="#ffffff"/>
<text x="450" y="30" font-size="16" fill="#1f2937" text-anchor="middle" font-weight="700">0.1초 동안 화면이 몇 번 바뀔까</text>
<text x="20" y="74" font-size="14" fill="#1f2937" text-anchor="start" font-weight="700">50p</text>
<text x="20" y="90" font-size="10" fill="#5b6572" text-anchor="start">초당 50프레임</text>
<line x1="200" y1="76" x2="860" y2="76" stroke="#e6e9ee" stroke-width="2"/>
<rect x="200.0" y="62" width="26" height="28" rx="3" fill="#e3f4e8" stroke="#1e8e3e"/>
<line x1="204.0" y1="68" x2="222.0" y2="68" stroke="#1e8e3e" stroke-width="2"/>
<line x1="204.0" y1="74" x2="222.0" y2="74" stroke="#1e8e3e" stroke-width="2"/>
<line x1="204.0" y1="80" x2="222.0" y2="80" stroke="#1e8e3e" stroke-width="2"/>
<line x1="204.0" y1="86" x2="222.0" y2="86" stroke="#1e8e3e" stroke-width="2"/>
<rect x="332.0" y="62" width="26" height="28" rx="3" fill="#e3f4e8" stroke="#1e8e3e"/>
<line x1="336.0" y1="68" x2="354.0" y2="68" stroke="#1e8e3e" stroke-width="2"/>
<line x1="336.0" y1="74" x2="354.0" y2="74" stroke="#1e8e3e" stroke-width="2"/>
<line x1="336.0" y1="80" x2="354.0" y2="80" stroke="#1e8e3e" stroke-width="2"/>
<line x1="336.0" y1="86" x2="354.0" y2="86" stroke="#1e8e3e" stroke-width="2"/>
<rect x="464.0" y="62" width="26" height="28" rx="3" fill="#e3f4e8" stroke="#1e8e3e"/>
<line x1="468.0" y1="68" x2="486.0" y2="68" stroke="#1e8e3e" stroke-width="2"/>
<line x1="468.0" y1="74" x2="486.0" y2="74" stroke="#1e8e3e" stroke-width="2"/>
<line x1="468.0" y1="80" x2="486.0" y2="80" stroke="#1e8e3e" stroke-width="2"/>
<line x1="468.0" y1="86" x2="486.0" y2="86" stroke="#1e8e3e" stroke-width="2"/>
<rect x="596.0" y="62" width="26" height="28" rx="3" fill="#e3f4e8" stroke="#1e8e3e"/>
<line x1="600.0" y1="68" x2="618.0" y2="68" stroke="#1e8e3e" stroke-width="2"/>
<line x1="600.0" y1="74" x2="618.0" y2="74" stroke="#1e8e3e" stroke-width="2"/>
<line x1="600.0" y1="80" x2="618.0" y2="80" stroke="#1e8e3e" stroke-width="2"/>
<line x1="600.0" y1="86" x2="618.0" y2="86" stroke="#1e8e3e" stroke-width="2"/>
<rect x="728.0" y="62" width="26" height="28" rx="3" fill="#e3f4e8" stroke="#1e8e3e"/>
<line x1="732.0" y1="68" x2="750.0" y2="68" stroke="#1e8e3e" stroke-width="2"/>
<line x1="732.0" y1="74" x2="750.0" y2="74" stroke="#1e8e3e" stroke-width="2"/>
<line x1="732.0" y1="80" x2="750.0" y2="80" stroke="#1e8e3e" stroke-width="2"/>
<line x1="732.0" y1="86" x2="750.0" y2="86" stroke="#1e8e3e" stroke-width="2"/>
<text x="20" y="120" font-size="14" fill="#1f2937" text-anchor="start" font-weight="700">25p</text>
<text x="20" y="136" font-size="10" fill="#5b6572" text-anchor="start">초당 25프레임</text>
<line x1="200" y1="122" x2="860" y2="122" stroke="#e6e9ee" stroke-width="2"/>
<rect x="200.0" y="108" width="26" height="28" rx="3" fill="#e3f4e8" stroke="#1e8e3e"/>
<line x1="204.0" y1="114" x2="222.0" y2="114" stroke="#1e8e3e" stroke-width="2"/>
<line x1="204.0" y1="120" x2="222.0" y2="120" stroke="#1e8e3e" stroke-width="2"/>
<line x1="204.0" y1="126" x2="222.0" y2="126" stroke="#1e8e3e" stroke-width="2"/>
<line x1="204.0" y1="132" x2="222.0" y2="132" stroke="#1e8e3e" stroke-width="2"/>
<rect x="464.0" y="108" width="26" height="28" rx="3" fill="#e3f4e8" stroke="#1e8e3e"/>
<line x1="468.0" y1="114" x2="486.0" y2="114" stroke="#1e8e3e" stroke-width="2"/>
<line x1="468.0" y1="120" x2="486.0" y2="120" stroke="#1e8e3e" stroke-width="2"/>
<line x1="468.0" y1="126" x2="486.0" y2="126" stroke="#1e8e3e" stroke-width="2"/>
<line x1="468.0" y1="132" x2="486.0" y2="132" stroke="#1e8e3e" stroke-width="2"/>
<rect x="728.0" y="108" width="26" height="28" rx="3" fill="#e3f4e8" stroke="#1e8e3e"/>
<line x1="732.0" y1="114" x2="750.0" y2="114" stroke="#1e8e3e" stroke-width="2"/>
<line x1="732.0" y1="120" x2="750.0" y2="120" stroke="#1e8e3e" stroke-width="2"/>
<line x1="732.0" y1="126" x2="750.0" y2="126" stroke="#1e8e3e" stroke-width="2"/>
<line x1="732.0" y1="132" x2="750.0" y2="132" stroke="#1e8e3e" stroke-width="2"/>
<text x="20" y="166" font-size="14" fill="#1f2937" text-anchor="start" font-weight="700">50i</text>
<text x="20" y="182" font-size="10" fill="#5b6572" text-anchor="start">초당 50필드 = 25프레임</text>
<line x1="200" y1="168" x2="860" y2="168" stroke="#e6e9ee" stroke-width="2"/>
<rect x="200.0" y="154" width="26" height="28" rx="3" fill="#f8fafc" stroke="#3b6fd8"/>
<line x1="204.0" y1="160" x2="222.0" y2="160" stroke="#3b6fd8" stroke-width="2"/>
<line x1="204.0" y1="172" x2="222.0" y2="172" stroke="#3b6fd8" stroke-width="2"/>
<rect x="332.0" y="154" width="26" height="28" rx="3" fill="#f8fafc" stroke="#e8710a"/>
<line x1="336.0" y1="166" x2="354.0" y2="166" stroke="#e8710a" stroke-width="2"/>
<line x1="336.0" y1="178" x2="354.0" y2="178" stroke="#e8710a" stroke-width="2"/>
<rect x="464.0" y="154" width="26" height="28" rx="3" fill="#f8fafc" stroke="#3b6fd8"/>
<line x1="468.0" y1="160" x2="486.0" y2="160" stroke="#3b6fd8" stroke-width="2"/>
<line x1="468.0" y1="172" x2="486.0" y2="172" stroke="#3b6fd8" stroke-width="2"/>
<rect x="596.0" y="154" width="26" height="28" rx="3" fill="#f8fafc" stroke="#e8710a"/>
<line x1="600.0" y1="166" x2="618.0" y2="166" stroke="#e8710a" stroke-width="2"/>
<line x1="600.0" y1="178" x2="618.0" y2="178" stroke="#e8710a" stroke-width="2"/>
<rect x="728.0" y="154" width="26" height="28" rx="3" fill="#f8fafc" stroke="#3b6fd8"/>
<line x1="732.0" y1="160" x2="750.0" y2="160" stroke="#3b6fd8" stroke-width="2"/>
<line x1="732.0" y1="172" x2="750.0" y2="172" stroke="#3b6fd8" stroke-width="2"/>
<text x="20" y="212" font-size="14" fill="#1f2937" text-anchor="start" font-weight="700">59.94p</text>
<text x="20" y="228" font-size="10" fill="#5b6572" text-anchor="start">초당 약 60프레임</text>
<line x1="200" y1="214" x2="860" y2="214" stroke="#e6e9ee" stroke-width="2"/>
<rect x="200.0" y="200" width="26" height="28" rx="3" fill="#e3f4e8" stroke="#1e8e3e"/>
<line x1="204.0" y1="206" x2="222.0" y2="206" stroke="#1e8e3e" stroke-width="2"/>
<line x1="204.0" y1="212" x2="222.0" y2="212" stroke="#1e8e3e" stroke-width="2"/>
<line x1="204.0" y1="218" x2="222.0" y2="218" stroke="#1e8e3e" stroke-width="2"/>
<line x1="204.0" y1="224" x2="222.0" y2="224" stroke="#1e8e3e" stroke-width="2"/>
<rect x="310.1" y="200" width="26" height="28" rx="3" fill="#e3f4e8" stroke="#1e8e3e"/>
<line x1="314.1" y1="206" x2="332.1" y2="206" stroke="#1e8e3e" stroke-width="2"/>
<line x1="314.1" y1="212" x2="332.1" y2="212" stroke="#1e8e3e" stroke-width="2"/>
<line x1="314.1" y1="218" x2="332.1" y2="218" stroke="#1e8e3e" stroke-width="2"/>
<line x1="314.1" y1="224" x2="332.1" y2="224" stroke="#1e8e3e" stroke-width="2"/>
<rect x="420.2" y="200" width="26" height="28" rx="3" fill="#e3f4e8" stroke="#1e8e3e"/>
<line x1="424.2" y1="206" x2="442.2" y2="206" stroke="#1e8e3e" stroke-width="2"/>
<line x1="424.2" y1="212" x2="442.2" y2="212" stroke="#1e8e3e" stroke-width="2"/>
<line x1="424.2" y1="218" x2="442.2" y2="218" stroke="#1e8e3e" stroke-width="2"/>
<line x1="424.2" y1="224" x2="442.2" y2="224" stroke="#1e8e3e" stroke-width="2"/>
<rect x="530.3" y="200" width="26" height="28" rx="3" fill="#e3f4e8" stroke="#1e8e3e"/>
<line x1="534.3" y1="206" x2="552.3" y2="206" stroke="#1e8e3e" stroke-width="2"/>
<line x1="534.3" y1="212" x2="552.3" y2="212" stroke="#1e8e3e" stroke-width="2"/>
<line x1="534.3" y1="218" x2="552.3" y2="218" stroke="#1e8e3e" stroke-width="2"/>
<line x1="534.3" y1="224" x2="552.3" y2="224" stroke="#1e8e3e" stroke-width="2"/>
<rect x="640.4" y="200" width="26" height="28" rx="3" fill="#e3f4e8" stroke="#1e8e3e"/>
<line x1="644.4" y1="206" x2="662.4" y2="206" stroke="#1e8e3e" stroke-width="2"/>
<line x1="644.4" y1="212" x2="662.4" y2="212" stroke="#1e8e3e" stroke-width="2"/>
<line x1="644.4" y1="218" x2="662.4" y2="218" stroke="#1e8e3e" stroke-width="2"/>
<line x1="644.4" y1="224" x2="662.4" y2="224" stroke="#1e8e3e" stroke-width="2"/>
<rect x="750.6" y="200" width="26" height="28" rx="3" fill="#e3f4e8" stroke="#1e8e3e"/>
<line x1="754.6" y1="206" x2="772.6" y2="206" stroke="#1e8e3e" stroke-width="2"/>
<line x1="754.6" y1="212" x2="772.6" y2="212" stroke="#1e8e3e" stroke-width="2"/>
<line x1="754.6" y1="218" x2="772.6" y2="218" stroke="#1e8e3e" stroke-width="2"/>
<line x1="754.6" y1="224" x2="772.6" y2="224" stroke="#1e8e3e" stroke-width="2"/>
<text x="20" y="258" font-size="14" fill="#1f2937" text-anchor="start" font-weight="700">29.97p</text>
<text x="20" y="274" font-size="10" fill="#5b6572" text-anchor="start">초당 약 30프레임</text>
<line x1="200" y1="260" x2="860" y2="260" stroke="#e6e9ee" stroke-width="2"/>
<rect x="200.0" y="246" width="26" height="28" rx="3" fill="#e3f4e8" stroke="#1e8e3e"/>
<line x1="204.0" y1="252" x2="222.0" y2="252" stroke="#1e8e3e" stroke-width="2"/>
<line x1="204.0" y1="258" x2="222.0" y2="258" stroke="#1e8e3e" stroke-width="2"/>
<line x1="204.0" y1="264" x2="222.0" y2="264" stroke="#1e8e3e" stroke-width="2"/>
<line x1="204.0" y1="270" x2="222.0" y2="270" stroke="#1e8e3e" stroke-width="2"/>
<rect x="420.2" y="246" width="26" height="28" rx="3" fill="#e3f4e8" stroke="#1e8e3e"/>
<line x1="424.2" y1="252" x2="442.2" y2="252" stroke="#1e8e3e" stroke-width="2"/>
<line x1="424.2" y1="258" x2="442.2" y2="258" stroke="#1e8e3e" stroke-width="2"/>
<line x1="424.2" y1="264" x2="442.2" y2="264" stroke="#1e8e3e" stroke-width="2"/>
<line x1="424.2" y1="270" x2="442.2" y2="270" stroke="#1e8e3e" stroke-width="2"/>
<rect x="640.4" y="246" width="26" height="28" rx="3" fill="#e3f4e8" stroke="#1e8e3e"/>
<line x1="644.4" y1="252" x2="662.4" y2="252" stroke="#1e8e3e" stroke-width="2"/>
<line x1="644.4" y1="258" x2="662.4" y2="258" stroke="#1e8e3e" stroke-width="2"/>
<line x1="644.4" y1="264" x2="662.4" y2="264" stroke="#1e8e3e" stroke-width="2"/>
<line x1="644.4" y1="270" x2="662.4" y2="270" stroke="#1e8e3e" stroke-width="2"/>
<text x="20" y="304" font-size="14" fill="#1f2937" text-anchor="start" font-weight="700">59.94i (60i)</text>
<text x="20" y="320" font-size="10" fill="#5b6572" text-anchor="start">초당 약 60필드 = 29.97프레임</text>
<line x1="200" y1="306" x2="860" y2="306" stroke="#e6e9ee" stroke-width="2"/>
<rect x="200.0" y="292" width="26" height="28" rx="3" fill="#f8fafc" stroke="#3b6fd8"/>
<line x1="204.0" y1="298" x2="222.0" y2="298" stroke="#3b6fd8" stroke-width="2"/>
<line x1="204.0" y1="310" x2="222.0" y2="310" stroke="#3b6fd8" stroke-width="2"/>
<rect x="310.1" y="292" width="26" height="28" rx="3" fill="#f8fafc" stroke="#e8710a"/>
<line x1="314.1" y1="304" x2="332.1" y2="304" stroke="#e8710a" stroke-width="2"/>
<line x1="314.1" y1="316" x2="332.1" y2="316" stroke="#e8710a" stroke-width="2"/>
<rect x="420.2" y="292" width="26" height="28" rx="3" fill="#f8fafc" stroke="#3b6fd8"/>
<line x1="424.2" y1="298" x2="442.2" y2="298" stroke="#3b6fd8" stroke-width="2"/>
<line x1="424.2" y1="310" x2="442.2" y2="310" stroke="#3b6fd8" stroke-width="2"/>
<rect x="530.3" y="292" width="26" height="28" rx="3" fill="#f8fafc" stroke="#e8710a"/>
<line x1="534.3" y1="304" x2="552.3" y2="304" stroke="#e8710a" stroke-width="2"/>
<line x1="534.3" y1="316" x2="552.3" y2="316" stroke="#e8710a" stroke-width="2"/>
<rect x="640.4" y="292" width="26" height="28" rx="3" fill="#f8fafc" stroke="#3b6fd8"/>
<line x1="644.4" y1="298" x2="662.4" y2="298" stroke="#3b6fd8" stroke-width="2"/>
<line x1="644.4" y1="310" x2="662.4" y2="310" stroke="#3b6fd8" stroke-width="2"/>
<rect x="750.6" y="292" width="26" height="28" rx="3" fill="#f8fafc" stroke="#e8710a"/>
<line x1="754.6" y1="304" x2="772.6" y2="304" stroke="#e8710a" stroke-width="2"/>
<line x1="754.6" y1="316" x2="772.6" y2="316" stroke="#e8710a" stroke-width="2"/>
<text x="200.0" y="344" font-size="10" fill="#5b6572" text-anchor="middle">0ms</text>
<text x="332.0" y="344" font-size="10" fill="#5b6572" text-anchor="middle">20ms</text>
<text x="464.0" y="344" font-size="10" fill="#5b6572" text-anchor="middle">40ms</text>
<text x="596.0" y="344" font-size="10" fill="#5b6572" text-anchor="middle">60ms</text>
<text x="728.0" y="344" font-size="10" fill="#5b6572" text-anchor="middle">80ms</text>
<text x="860.0" y="344" font-size="10" fill="#5b6572" text-anchor="middle">100ms</text>
<text x="450" y="368" font-size="11" fill="#5b6572" text-anchor="middle">초록 = 전체 프레임, 파랑·주황 = 홀수·짝수 필드. 인터레이스는 필드 수만큼 움직임이 부드럽지만 한 장의 세로 해상도는 절반입니다</text>
</svg>
